<svg width="580" height="944" viewBox="0 0 580 944" fill="none" xmlns="http://www.w3.org/2000/svg">
<rect x="17.5" y="17.5" width="545" height="909" stroke="white" stroke-width="5"/>
<line x1="14.9957" y1="240.917" x2="564.994" y2="239.752" stroke="white" stroke-width="5"/>
<line x1="14.9957" y1="470.083" x2="564.994" y2="468.917" stroke="white" stroke-width="5"/>
<line x1="14.9957" y1="699.248" x2="564.994" y2="698.083" stroke="white" stroke-width="5"/>
<circle cx="290" cy="84" r="3.5" stroke="white" stroke-width="3"/>
<circle cx="290" cy="860" r="3.5" stroke="white" stroke-width="3"/>
<rect x="264.5" y="2.5" width="50" height="15" stroke="white" stroke-width="5"/>
<rect x="264.5" y="926.5" width="50" height="15" stroke="white" stroke-width="5"/>
<line x1="560" y1="63.5" x2="580" y2="63.5" stroke="white" stroke-width="5"/>
<line x1="365.5" y1="20" x2="365.5" y2="5" stroke="white" stroke-width="5"/>
<line x1="365.5" y1="939" x2="365.5" y2="924" stroke="white" stroke-width="5"/>
<line x1="264.5" y1="20" x2="264.5" stroke="white" stroke-width="5"/>
<line x1="214.5" y1="20" x2="214.5" y2="5" stroke="white" stroke-width="5"/>
<line x1="217.5" y1="939" x2="217.5" y2="924" stroke="white" stroke-width="5"/>
<line x1="164.5" y1="20" x2="164.5" y2="5" stroke="white" stroke-width="5"/>
<line x1="167.5" y1="939" x2="167.5" y2="924" stroke="white" stroke-width="5"/>
<line x1="415.5" y1="20" x2="415.5" y2="5" stroke="white" stroke-width="5"/>
<line x1="415.5" y1="939" x2="415.5" y2="924" stroke="white" stroke-width="5"/>
<line y1="63.5" x2="20" y2="63.5" stroke="white" stroke-width="5"/>
<line x1="560" y1="876.5" x2="580" y2="876.5" stroke="white" stroke-width="5"/>
<line y1="876.5" x2="20" y2="876.5" stroke="white" stroke-width="5"/>
<line x1="560" y1="160.5" x2="580" y2="160.5" stroke="white" stroke-width="5"/>
<line y1="160.5" x2="20" y2="160.5" stroke="white" stroke-width="5"/>
<line x1="560" y1="783.5" x2="580" y2="783.5" stroke="white" stroke-width="5"/>
<line y1="783.5" x2="20" y2="783.5" stroke="white" stroke-width="5"/>
</svg>
