<svg width="43" height="31" viewBox="0 0 43 31" fill="none" xmlns="http://www.w3.org/2000/svg">
<path d="M40.0625 1H2.5625C1.69956 1 1 1.69956 1 2.5625V27.5625C1 28.4254 1.69956 29.125 2.5625 29.125H40.0625C40.9254 29.125 41.625 28.4254 41.625 27.5625V2.5625C41.625 1.69956 40.9254 1 40.0625 1Z" stroke="black" stroke-width="2" stroke-linecap="round" stroke-linejoin="round"/>
<path d="M21.3125 1V29.125" stroke="black" stroke-width="2" stroke-linecap="round" stroke-linejoin="round"/>
<path d="M41.625 22.875H38.5C36.428 22.875 34.4409 22.0519 32.9757 20.5868C31.5106 19.1216 30.6875 17.1345 30.6875 15.0625C30.6875 12.9905 31.5106 11.0034 32.9757 9.53823C34.4409 8.0731 36.428 7.25 38.5 7.25H41.625" stroke="black" stroke-width="2" stroke-linecap="round" stroke-linejoin="round"/>
<path d="M1 22.875H4.125C6.197 22.875 8.18414 22.0519 9.64927 20.5868C11.1144 19.1216 11.9375 17.1345 11.9375 15.0625C11.9375 12.9905 11.1144 11.0034 9.64927 9.53823C8.18414 8.0731 6.197 7.25 4.125 7.25H1" stroke="black" stroke-width="2" stroke-linecap="round" stroke-linejoin="round"/>
</svg>
