<svg width="43" height="38" viewBox="0 0 43 38" fill="none" xmlns="http://www.w3.org/2000/svg">
<path d="M1 36.9375H15.8438C17.8525 36.9375 19.8161 36.3419 21.4863 35.2259C23.1564 34.1099 24.4582 32.5237 25.2269 30.6679C25.9956 28.8121 26.1967 26.77 25.8049 24.7999C25.413 22.8297 24.4457 21.0201 23.0253 19.5997C21.6049 18.1793 19.7953 17.212 17.8251 16.8202C15.855 16.4283 13.8129 16.6294 11.9571 17.3981C10.1013 18.1668 8.51512 19.4686 7.39914 21.1387C6.28315 22.8089 5.6875 24.7725 5.6875 26.7813C5.6875 33.8125 1 36.9375 1 36.9375Z" stroke="black" stroke-width="2" stroke-linecap="round" stroke-linejoin="round"/>
<path d="M19.8301 17.4375C23.5781 12.3848 32.9258 1 41.625 1C41.625 9.69922 30.2402 19.0469 25.1875 22.7949" stroke="black" stroke-width="2" stroke-linecap="round" stroke-linejoin="round"/>
<path d="M23.8516 12.4531C26.5052 13.9388 28.696 16.1296 30.1816 18.7832" stroke="black" stroke-width="2" stroke-linecap="round" stroke-linejoin="round"/>
</svg>
