<svg width="43" height="40" viewBox="0 0 43 40" fill="none" xmlns="http://www.w3.org/2000/svg">
<path d="M21.3096 27.5625C25.6243 27.5625 29.1221 24.0647 29.1221 19.75C29.1221 15.4353 25.6243 11.9375 21.3096 11.9375C16.9948 11.9375 13.4971 15.4353 13.4971 19.75C13.4971 24.0647 16.9948 27.5625 21.3096 27.5625Z" stroke="black" stroke-width="2" stroke-linecap="round" stroke-linejoin="round"/>
<path d="M21.7095 35.0059C21.4478 35.0059 21.1841 35.0059 20.9283 35.0059L14.6685 38.5C12.2316 37.6803 9.97137 36.408 8.00638 34.75L7.98295 27.7188C7.84428 27.5 7.71342 27.2793 7.59232 27.0527L1.36771 23.5078C0.877429 21.0279 0.877429 18.476 1.36771 15.9961L7.58646 12.4609C7.71342 12.2363 7.84428 12.0137 7.97709 11.7949L8.00834 4.76367C9.97155 3.10086 12.2312 1.82392 14.6685 1L20.9185 4.49414C21.1802 4.49414 21.4439 4.49414 21.6997 4.49414L27.9497 1C30.3866 1.8197 32.6469 3.09197 34.6119 4.75L34.6353 11.7812C34.774 12 34.9048 12.2207 35.0259 12.4473L41.2466 15.9902C41.7369 18.4701 41.7369 21.022 41.2466 23.502L35.0279 27.0371C34.9009 27.2617 34.7701 27.4844 34.6372 27.7031L34.606 34.7344C32.6441 36.3975 30.3858 37.675 27.9497 38.5L21.7095 35.0059Z" stroke="black" stroke-width="2" stroke-linecap="round" stroke-linejoin="round"/>
</svg>
