<svg width="40" height="38" viewBox="0 0 40 38" fill="none" xmlns="http://www.w3.org/2000/svg">
<path d="M19.75 32.2509C19.75 31.0077 20.2439 29.8155 21.1229 28.9364C22.002 28.0573 23.1943 27.5634 24.4375 27.5634H33.4629C34.5246 27.5636 35.5549 27.2034 36.3852 26.5416C37.2155 25.8799 37.7965 24.9559 38.0332 23.9209C38.3558 22.4998 38.5124 21.046 38.5 19.5888C38.4121 9.27243 29.875 0.897434 19.5547 1.00095C14.6158 1.0524 9.89669 3.05053 6.42252 6.56128C2.94834 10.072 0.999732 14.8118 1 19.7509C1 27.917 6.2207 34.0947 13.5 36.667C14.2067 36.9168 14.9631 36.9936 15.7057 36.8907C16.4482 36.7879 17.1552 36.5084 17.7674 36.0759C18.3797 35.6433 18.8792 35.0702 19.2242 34.4047C19.5691 33.7391 19.7495 33.0006 19.75 32.2509Z" stroke="black" stroke-width="2" stroke-linecap="round" stroke-linejoin="round"/>
<path d="M19.75 11.9385C21.0444 11.9385 22.0938 10.8891 22.0938 9.59473C22.0938 8.30031 21.0444 7.25098 19.75 7.25098C18.4556 7.25098 17.4062 8.30031 17.4062 9.59473C17.4062 10.8891 18.4556 11.9385 19.75 11.9385Z" fill="black"/>
<path d="M11.1562 16.626C12.4507 16.626 13.5 15.5766 13.5 14.2822C13.5 12.9878 12.4507 11.9385 11.1562 11.9385C9.86183 11.9385 8.8125 12.9878 8.8125 14.2822C8.8125 15.5766 9.86183 16.626 11.1562 16.626Z" fill="black"/>
<path d="M11.1562 27.5635C12.4507 27.5635 13.5 26.5141 13.5 25.2197C13.5 23.9253 12.4507 22.876 11.1562 22.876C9.86183 22.876 8.8125 23.9253 8.8125 25.2197C8.8125 26.5141 9.86183 27.5635 11.1562 27.5635Z" fill="black"/>
<path d="M28.3438 16.626C29.6382 16.626 30.6875 15.5766 30.6875 14.2822C30.6875 12.9878 29.6382 11.9385 28.3438 11.9385C27.0493 11.9385 26 12.9878 26 14.2822C26 15.5766 27.0493 16.626 28.3438 16.626Z" fill="black"/>
</svg>
